# xmcd CD database file
#
# Track frame offsets:
#	150
#	3325
#	23900
#	44287
#	62490
#	82062
#	96832
#	119447
#	142352
#	169700
#	189250
#	206967
#	226630
#	247662
#
# Disc length: 3540 seconds
#
# Revision: 1
# Processed by: cddbd v1.5.1PL2 Copyright (c) Steve Scherf et al.
# Submitted via: CDex 1.50
#
DISCID=b50dd20e
DTITLE=Ultimate Kaos - Ultimate Kaos
DYEAR=1995
DGENRE=Pop
TTITLE0=Intro (Age Ain't Nuthin' But A Number)
TTITLE1=Hoochie Booty
TTITLE2=Some Girls
TTITLE3=This Heart Belongs To You
TTITLE4=Skip To My Loo
TTITLE5=Midemeanour
TTITLE6=Show A Little Love
TTITLE7=Weekend Girl
TTITLE8=Cool Out Alley
TTITLE9=Believe In Us
TTITLE10=Age Ain't Nuthin' But A Number
TTITLE11=Uptown
TTITLE12=Falling In Love
TTITLE13=Right Here
EXTD=YEAR: 1995
EXTT0=
EXTT1=
EXTT2=
EXTT3=
EXTT4=
EXTT5=
EXTT6=
EXTT7=
EXTT8=
EXTT9=
EXTT10=
EXTT11=
EXTT12=
EXTT13=
PLAYORDER=
